<?xml version="1.0" ?><svg height="1024" preserveAspectRatio="xMidYMid meet" width="1024" xmlns="http://www.w3.org/2000/svg"><g><title/><rect fill="none" height="1026" id="canvas_background" width="1026" x="-1" y="-1"/></g><g><title/><g fill="#000000" id="svg_1" transform="translate(0,1024) scale(0.10000000149011612,-0.10000000149011612) "><path d="m4820,9439c-1036,-77 -1981,-503 -2723,-1228c-976,-952 -1444,-2300 -1271,-3654c216,-1693 1410,-3103 3050,-3602c1268,-386 2679,-157 3754,608c1321,941 2008,2502 1804,4100c-216,1693 -1410,3103 -3050,3602c-488,149 -1057,212 -1564,174zm895,-2019c243,-14 392,-35 535,-75c379,-105 569,-232 749,-498c159,-235 195,-701 84,-1087c-33,-116 -139,-327 -217,-431c-172,-232 -401,-417 -691,-560c-171,-84 -294,-129 -490,-179c-304,-78 -559,-108 -990,-116l-290,-6l-62,-29c-76,-36 -146,-104 -167,-161c-8,-24 -69,-268 -136,-543c-130,-538 -130,-540 -214,-611c-22,-19 -60,-44 -85,-56c-45,-22 -56,-23 -406,-26c-198,-2 -379,0 -403,3c-31,5 -56,18 -84,43c-50,45 -68,85 -68,150c0,41 868,3814 915,3978c28,98 105,174 203,200c59,16 1558,19 1817,4zm1774,-1051c277,-156 436,-439 460,-822c38,-609 -206,-1086 -740,-1445c-215,-144 -488,-256 -799,-327c-274,-62 -492,-86 -885,-94l-320,-6l-60,-29c-66,-33 -143,-105 -168,-159c-9,-19 -66,-250 -127,-513c-61,-264 -120,-502 -131,-531c-26,-64 -77,-125 -132,-158c-69,-40 -155,-47 -524,-43l-338,3l-48,28c-56,33 -97,90 -104,145c-3,25 3,77 18,136l23,96l230,0l231,0l60,29c68,32 147,105 176,164c11,21 72,261 135,533c62,271 123,514 136,540c28,60 79,111 137,137c42,19 73,22 334,28c554,14 861,58 1214,174c692,228 1147,692 1258,1285c50,266 20,584 -74,793c-16,37 -27,67 -24,67c4,0 31,-14 62,-31z" fill="#3b7bbf" id="svg_2"/><path d="m4836,6594c-69,-22 -134,-91 -163,-175c-31,-87 -213,-880 -213,-924c0,-50 21,-95 63,-132c59,-52 88,-56 316,-50c282,7 451,39 617,117c222,103 357,243 420,436c27,83 29,99 29,239c-1,132 -4,157 -24,208c-61,155 -198,242 -444,282c-128,21 -532,20 -601,-1z" fill="#3b7bbf" id="svg_3"/></g></g></svg>